<?xml version="1.0" encoding="utf-8"?>
<!-- Generator: Adobe Illustrator 15.0.0, SVG Export Plug-In . SVG Version: 6.00 Build 0)  -->
<!DOCTYPE svg PUBLIC "-//W3C//DTD SVG 1.1//EN" "http://www.w3.org/Graphics/SVG/1.1/DTD/svg11.dtd">
<svg version="1.1" id="Layer_1" xmlns="http://www.w3.org/2000/svg" xmlns:xlink="http://www.w3.org/1999/xlink" x="0px" y="0px"
	 width="595.28px" height="841.89px" viewBox="0 0 595.28 841.89" enable-background="new 0 0 595.28 841.89" xml:space="preserve">
<path fill-rule="evenodd" clip-rule="evenodd" fill="#00AEEF" d="M297.562,196c9.512-1.017,32.695-1.203,47,4
	c9.672,3.518,23.901,12.256,25,22c1.203,10.659-5.997,18.589-13,20c-11.655,2.348-19.285-7.144-30.999-11
	c-15.545-5.117-40.5-4.9-40,13c0.333,11.958,17.522,14.75,32,19c13.648,4.007,29.52,7.416,37.999,13
	c14.719,9.693,27.765,36.119,16,62c-11.543,25.396-54.827,37.456-94,26c-7.291-2.132-16.58-7.465-22-11
	c-5.901-3.848-13.735-10.416-14-18c-0.324-9.311,7.412-18.008,16-19c13.67-1.579,22.142,11.737,37,16
	c16.655,4.778,42.618,3.157,41-16c-1.02-12.08-16.188-14.627-30.999-19c-22.608-6.675-44.54-10.351-54-29
	c-12.968-25.563-0.019-52.102,17-63C275.858,199.688,286.598,197.172,297.562,196z"/>
<path fill="#FFFFFF" d="M-446.437,232c0,19.776,0,41.253,0,67c0,21.042,3.798,53.084-4,62c-6.642,7.594-23.054,7.576-30,1
	c-9.058-8.574-5-42.261-5-62c0-24.425,0-45.414,0-67c-21.185-3.753-50.531,5.893-53-15c-1.195-10.113,4.745-18.201,14-20
	c13.746-2.672,38.999,0,65,0c22.592,0,52.556-3.688,61,4c7.105,6.47,7.214,22.456-2,28C-411.51,236.663-426.729,229.167-446.437,232
	z"/>
<path fill="#FFFFFF" d="M-240.437,254c9.91-7.384,16.335-15.225,30-17c24.82-3.225,49.834,10.699,53,39c1.263,11.291,0,24.702,0,41
	c0,12.168,2.564,31.192-1,40c-4.016,9.923-23.082,12.608-31,6c-16.36-13.652,8.129-80.382-16-92c-15.068-7.255-28.62,2.505-32,13
	c-6.242,19.375,8.089,66.924-7,79c-5.841,4.674-19.27,5.386-26,0c-9.163-7.332-6-37.413-6-59c0-18.982-3.81-52.342,4-61
	C-265.938,235.795-242.321,231.552-240.437,254z"/>
<path fill="#FFFFFF" d="M152.563,354c0-11.519,0-32.405,0-54c0-21.234-3.571-48.73,4-57c9.218-10.069,37.751-5.924,33,16
	c5.399-12.698,26.119-30.49,40-19c6.958,5.759,7.343,23.375,0,30c-4.323,3.9-14.215,3.628-20,6c-12.849,5.268-17.807,18.016-19,29
	c-2.114,19.477,5.344,47.389-5,57C175.318,371.517,155.995,366.211,152.563,354z"/>
<path fill-rule="evenodd" clip-rule="evenodd" fill="#00AEEF" d="M427.562,252c14.375-10.454,23.523-18.385,47-15
	c19.483,2.809,32.966,19.257,35,38c1.973,18.169,0,39.352,0,57c0,7.971,2.914,18.296-1,26c-3.819,7.518-19.788,12.302-29,7
	c-20.251-11.656,7.212-83.53-19-94c-11.443-4.571-23.635,0.598-28,7c-12.956,19.002,6.868,76.678-12,87
	c-9.634,5.271-25.274,0.126-29-8c-3.91-8.53-0.896-40.923-1-58c-0.104-17.168-2.451-50.548,4-57
	C403.08,233.481,427.859,237.357,427.562,252z"/>
<path fill-rule="evenodd" clip-rule="evenodd" fill="#00AEEF" d="M713.562,274c6.184,8.902,11.892,12.443,16.252,18.75
	c-13.76,12.538-32.094,26.767-49.542,41.25c-0.901-5.601-0.218-20.579-0.218-38.25c0-18.216-1.897-44.735,4.508-52.75
	c7.152-8.951,33.612-6.77,34,8c6.331-0.852,9.137-6.382,14-9c23.711-12.764,58.434-0.482,71,14c31.007,35.736,12.214,100.983-31,111
	c-16.478,3.819-37.816,0.115-51-12c-5.981,18.078,5.316,49.988-13,56c-6.726,2.208-18.29,0.313-23-5c-2.725-3.073-5.153-16.819-4-30
	c0.646-7.389,16.032-17.101,22.752-23c15.205-13.347,30.549-25.736,44.25-38.5c5.752,6.75,10.765,13.108,15.998,18.5
	c6.552-22.988,11.002-45.5,15.502-67.5L713.562,274z"/>
<path fill="#FFFFFF" d="M-38.438,195c-12.501,10.278-2.907,38.22-6,58c-9.179-8.855-16.768-14.443-30-16
	c-84.849-9.984-91.186,132.156-6,131c17.562-0.238,27.839-10.059,37-17c0.284,19.419,32.803,20.068,37,4c0-50.333,0-100.667,0-151
	C-10.544,191.111-29.113,187.334-38.438,195z M-70.438,335c-39.515,3.108-46.138-60.119-7-65c19.259-2.402,32.543,10.002,34,28
	C-42.085,314.706-51.485,333.509-70.438,335z"/>
<path fill="#FFFFFF" d="M229.562,240c-13.881-11.49-34.601,6.302-40,19c4.752-21.924-23.781-26.069-33-16c-7.571,8.27-4,35.766-4,57
	c0,21.594,0,42.48,0,54c3.433,12.211,22.756,17.518,33,8c10.344-9.61,2.886-37.522,5-57c1.193-10.984,6.151-23.732,19-29
	c5.785-2.372,15.677-2.1,20-6C236.905,263.375,236.521,245.759,229.562,240z"/>
<path fill="#FFFFFF" d="M-400.437,230c9.214-5.544,9.105-21.53,2-28c-8.443-7.688-38.408-4-61-4c-26.001,0-51.254-2.672-65,0
	c-9.255,1.799-15.195,9.887-14,20c2.469,20.893,31.815,11.247,53,15c0,21.586,0,42.575,0,67c0,19.738-4.058,53.425,5,62
	c6.946,6.576,23.358,6.594,30-1c7.798-8.916,4-40.958,4-62c0-25.747,0-47.224,0-67C-426.729,229.167-411.51,236.663-400.437,230z"/>
<path fill="#FFFFFF" d="M-157.437,276c-3.166-28.301-28.18-42.225-53-39c-13.665,1.775-20.09,9.616-30,17
	c-1.884-22.448-25.5-18.205-32-11c-7.81,8.658-4,42.018-4,61c0,21.587-3.163,51.667,6,59c6.73,5.386,20.159,4.674,26,0
	c15.089-12.075,0.758-59.624,7-79c3.38-10.495,16.932-20.255,32-13c24.129,11.617-0.36,78.348,16,92c7.918,6.608,26.984,3.923,31-6
	c3.564-8.808,1-27.832,1-40C-157.437,300.702-156.174,287.291-157.437,276z"/>
<path fill-rule="evenodd" clip-rule="evenodd" fill="#00AEEF" d="M660.562,301c0-22.872,3.387-51.249-5-59
	c-8.963-8.283-31.418-5.156-33,10c-9.333-7.312-16.623-13.515-30-15c-46.795-5.196-72.229,36.194-68,74
	c3.863,34.54,32.499,60.388,67,57c12.758-1.253,21.5-8.796,32-17c1.473,20.078,26.456,19.779,34,10
	C664.056,352.582,660.562,320.036,660.562,301z M596.562,335c-18.32,1.522-33.104-13.219-34-30c-0.851-15.95,7.496-30.665,23-34
	c13.199-2.839,25.22,2.29,31,10C631.213,300.542,619.849,333.065,596.562,335z"/>
<path fill="#FFFFFF" d="M-295.437,281c-8.481-28.835-31.631-47.755-68-44c-33.105,3.418-55.117,30.793-56,63
	c-1.141,41.606,27.168,67.473,66,68c22.225,0.302,51.342-9.65,52-26c0.312-7.741-5.289-15.511-13-16
	c-8.371-0.531-18.967,9.541-25,11c-22.922,5.547-39.063-4.802-43-23c21.642-4.916,78.085,8.93,88-6
	C-288.899,299.661-293.451,287.753-295.437,281z M-321.933,288.777c-5.353-1.02-60.808-1.529-60.808-1.529
	s4.843-26.508,32.625-24.724C-327.972,263.945-316.58,289.796-321.933,288.777z"/>
<path fill="#FFFFFF" d="M131.932,281c-8.481-28.835-31.631-47.755-68-44c-33.105,3.418-55.117,30.793-56,63
	c-1.141,41.606,27.168,67.473,66,68c22.225,0.302,51.342-9.65,52-26c0.312-7.741-5.289-15.511-13-16
	c-8.371-0.531-18.967,9.541-25,11c-22.922,5.547-39.063-4.802-43-23c21.642-4.916,78.085,8.93,88-6
	C138.469,299.661,133.918,287.753,131.932,281z M105.436,288.777c-5.353-1.02-60.808-1.529-60.808-1.529s4.843-26.508,32.625-24.724
	C99.396,263.945,110.789,289.796,105.436,288.777z"/>
</svg>
