<?xml version="1.0" encoding="utf-8"?>
<!-- Generator: Adobe Illustrator 15.0.0, SVG Export Plug-In . SVG Version: 6.00 Build 0)  -->
<!DOCTYPE svg PUBLIC "-//W3C//DTD SVG 1.1//EN" "http://www.w3.org/Graphics/SVG/1.1/DTD/svg11.dtd">
<svg version="1.1" id="Layer_1" xmlns="http://www.w3.org/2000/svg" xmlns:xlink="http://www.w3.org/1999/xlink" x="0px" y="0px"
	 width="595.28px" height="841.89px" viewBox="0 0 595.28 841.89" enable-background="new 0 0 595.28 841.89" xml:space="preserve">
<path fill-rule="evenodd" clip-rule="evenodd" fill="#00AEEF" d="M358.726,236.534c3.691-0.395,12.688-0.467,18.24,1.552
	c3.754,1.365,9.276,4.756,9.702,8.538c0.467,4.136-2.327,7.214-5.045,7.762c-4.523,0.911-7.484-2.772-12.03-4.269
	c-6.033-1.986-15.718-1.901-15.524,5.045c0.13,4.641,6.801,5.724,12.419,7.374c5.297,1.555,11.457,2.878,14.748,5.045
	c5.712,3.762,10.774,14.018,6.209,24.062c-4.479,9.856-21.278,14.537-36.48,10.09c-2.829-0.827-6.435-2.897-8.538-4.269
	c-2.29-1.494-5.331-4.042-5.434-6.986c-0.126-3.614,2.877-6.989,6.21-7.374c5.305-0.613,8.593,4.555,14.359,6.209
	c6.464,1.854,16.539,1.225,15.911-6.209c-0.396-4.688-6.282-5.677-12.03-7.374c-8.774-2.59-17.285-4.017-20.957-11.255
	c-5.033-9.92-0.008-20.22,6.598-24.45C350.303,237.965,354.471,236.989,358.726,236.534z"/>
<path fill="#FFFFFF" d="M69.983,250.505c0,7.675,0,16.01,0,26.002c0,8.166,1.475,20.602-1.552,24.062
	c-2.578,2.947-8.947,2.94-11.643,0.388c-3.516-3.328-1.941-16.401-1.941-24.062c0-9.479,0-17.625,0-26.002
	c-8.221-1.457-19.61,2.287-20.568-5.821c-0.464-3.925,1.841-7.064,5.433-7.762c5.334-1.037,15.135,0,25.226,0
	c8.768,0,20.396-1.431,23.674,1.552c2.758,2.511,2.8,8.715-0.776,10.867C83.538,252.315,77.633,249.406,69.983,250.505z"/>
<path fill="#FFFFFF" d="M149.931,259.043c3.847-2.866,6.34-5.909,11.644-6.598c9.633-1.251,19.34,4.152,20.568,15.136
	c0.49,4.382,0,9.586,0,15.912c0,4.723,0.996,12.105-0.388,15.524c-1.559,3.851-8.958,4.893-12.031,2.329
	c-6.349-5.298,3.155-31.196-6.209-35.705c-5.848-2.815-11.107,0.972-12.419,5.045c-2.423,7.519,3.139,25.973-2.717,30.659
	c-2.268,1.814-7.479,2.09-10.091,0c-3.556-2.846-2.328-14.52-2.328-22.897c0-7.367-1.479-20.314,1.552-23.674
	C140.034,251.979,149.2,250.332,149.931,259.043z"/>
<path fill="#FFFFFF" d="M302.452,297.853c0-4.47,0-12.576,0-20.957c0-8.241-1.386-18.912,1.553-22.122
	c3.577-3.908,14.65-2.299,12.807,6.209c2.095-4.928,10.137-11.833,15.523-7.374c2.701,2.235,2.851,9.072,0,11.643
	c-1.678,1.514-5.517,1.408-7.762,2.329c-4.986,2.044-6.911,6.992-7.374,11.255c-0.82,7.559,2.074,18.391-1.94,22.121
	C311.283,304.651,303.784,302.592,302.452,297.853z"/>
<path fill-rule="evenodd" clip-rule="evenodd" fill="#00AEEF" d="M409.178,258.267c5.579-4.057,9.129-7.135,18.24-5.821
	c7.562,1.09,12.794,7.474,13.584,14.748c0.765,7.051,0,15.272,0,22.121c0,3.094,1.131,7.101-0.389,10.091
	c-1.482,2.917-7.68,4.774-11.255,2.716c-7.859-4.523,2.799-32.417-7.374-36.48c-4.44-1.774-9.172,0.232-10.866,2.717
	c-5.028,7.375,2.665,29.758-4.657,33.764c-3.738,2.045-9.809,0.049-11.255-3.104c-1.518-3.311-0.348-15.882-0.388-22.509
	c-0.041-6.663-0.951-19.618,1.553-22.122C399.677,251.08,409.293,252.584,409.178,258.267z"/>
<path fill-rule="evenodd" clip-rule="evenodd" fill="#00AEEF" d="M520.173,266.805c2.399,3.455,4.615,4.83,6.308,7.277
	c-5.341,4.866-12.456,10.388-19.228,16.009c-0.35-2.173-0.084-7.986-0.084-14.844c0-7.07-0.737-17.362,1.749-20.472
	c2.775-3.474,13.045-2.627,13.195,3.104c2.457-0.331,3.546-2.477,5.434-3.493c9.202-4.954,22.678-0.187,27.555,5.434
	c12.033,13.869,4.74,39.191-12.031,43.078c-6.395,1.482-14.677,0.044-19.793-4.657c-2.321,7.016,2.063,19.4-5.045,21.733
	c-2.61,0.857-7.099,0.122-8.927-1.94c-1.057-1.192-2-6.527-1.552-11.643c0.251-2.868,6.222-6.637,8.83-8.926
	c5.9-5.18,11.855-9.988,17.173-14.942c2.232,2.62,4.178,5.087,6.209,7.18c2.542-8.921,4.27-17.658,6.016-26.196L520.173,266.805z"/>
<path fill="#FFFFFF" d="M228.326,236.146c-4.852,3.989-1.129,14.833-2.329,22.509c-3.562-3.437-6.507-5.605-11.643-6.209
	c-32.93-3.875-35.389,51.289-2.328,50.84c6.815-0.093,10.804-3.904,14.359-6.598c0.11,7.536,12.73,7.788,14.359,1.552
	c0-19.534,0-39.068,0-58.602C239.151,234.637,231.944,233.171,228.326,236.146z M215.907,290.479
	c-15.336,1.206-17.906-23.332-2.717-25.226c7.475-0.932,12.63,3.882,13.195,10.867C226.91,282.603,223.263,289.9,215.907,290.479z"
	/>
<path fill="#FFFFFF" d="M332.335,253.61c-5.387-4.459-13.429,2.446-15.523,7.374c1.844-8.508-9.229-10.117-12.807-6.209
	c-2.938,3.209-1.553,13.881-1.553,22.122c0,8.38,0,16.486,0,20.957c1.332,4.739,8.831,6.799,12.807,3.105
	c4.015-3.73,1.12-14.563,1.94-22.121c0.463-4.263,2.388-9.21,7.374-11.255c2.245-0.92,6.084-0.815,7.762-2.329
	C335.186,262.682,335.036,255.845,332.335,253.61z"/>
<path fill="#FFFFFF" d="M87.836,249.729c3.576-2.152,3.534-8.355,0.776-10.867c-3.277-2.983-14.906-1.552-23.674-1.552
	c-10.091,0-19.892-1.037-25.226,0c-3.592,0.698-5.897,3.837-5.433,7.762c0.958,8.108,12.348,4.364,20.568,5.821
	c0,8.377,0,16.523,0,26.002c0,7.66-1.574,20.734,1.941,24.062c2.695,2.552,9.064,2.559,11.643-0.388
	c3.026-3.46,1.552-15.896,1.552-24.062c0-9.992,0-18.327,0-26.002C77.633,249.406,83.538,252.315,87.836,249.729z"/>
<path fill="#FFFFFF" d="M182.143,267.582c-1.229-10.983-10.936-16.387-20.568-15.136c-5.304,0.689-7.797,3.732-11.644,6.598
	c-0.73-8.712-9.896-7.065-12.419-4.269c-3.03,3.36-1.552,16.307-1.552,23.674c0,8.378-1.228,20.052,2.328,22.897
	c2.612,2.09,7.823,1.814,10.091,0c5.855-4.687,0.294-23.14,2.717-30.659c1.312-4.073,6.571-7.861,12.419-5.045
	c9.364,4.508-0.14,30.406,6.209,35.705c3.073,2.564,10.473,1.522,12.031-2.329c1.384-3.418,0.388-10.801,0.388-15.524
	C182.143,277.168,182.633,271.963,182.143,267.582z"/>
<path fill-rule="evenodd" clip-rule="evenodd" fill="#00AEEF" d="M499.604,277.284c0-8.876,1.314-19.889-1.94-22.897
	c-3.479-3.214-12.193-2.001-12.807,3.881c-3.622-2.837-6.451-5.245-11.644-5.821c-18.16-2.017-28.031,14.047-26.39,28.719
	c1.499,13.404,12.612,23.436,26.002,22.121c4.951-0.486,8.344-3.414,12.419-6.598c0.571,7.792,10.268,7.676,13.195,3.881
	C500.96,297.303,499.604,284.672,499.604,277.284z M474.766,290.479c-7.11,0.591-12.848-5.13-13.195-11.643
	c-0.33-6.19,2.909-11.901,8.927-13.195c5.122-1.102,9.787,0.889,12.03,3.881C488.214,277.106,483.804,289.728,474.766,290.479z"/>
<path fill="#FFFFFF" d="M128.586,269.522c-3.291-11.191-12.276-18.533-26.391-17.076c-12.848,1.327-21.391,11.951-21.733,24.45
	c-0.442,16.147,10.544,26.186,25.614,26.39c8.626,0.117,19.926-3.745,20.182-10.091c0.12-3.004-2.053-6.02-5.046-6.209
	c-3.248-0.206-7.361,3.703-9.702,4.269c-8.896,2.153-15.16-1.863-16.688-8.926c8.399-1.908,30.305,3.466,34.152-2.329
	C131.123,276.764,129.356,272.143,128.586,269.522z M118.303,272.54c-2.077-0.396-23.599-0.593-23.599-0.593
	s1.879-10.288,12.661-9.595C115.959,262.903,120.381,272.936,118.303,272.54z"/>
<path fill="#FFFFFF" d="M294.445,269.522c-3.291-11.191-12.275-18.533-26.391-17.076c-12.848,1.327-21.391,11.951-21.732,24.45
	c-0.443,16.147,10.543,26.186,25.613,26.39c8.626,0.117,19.926-3.745,20.182-10.091c0.12-3.004-2.053-6.02-5.046-6.209
	c-3.248-0.206-7.36,3.703-9.702,4.269c-8.896,2.153-15.16-1.863-16.688-8.926c8.398-1.908,30.304,3.466,34.151-2.329
	C296.982,276.764,295.216,272.143,294.445,269.522z M284.162,272.54c-2.077-0.396-23.599-0.593-23.599-0.593
	s1.879-10.288,12.661-9.595C281.818,262.903,286.24,272.936,284.162,272.54z"/>
</svg>
